<svg width="192" height="3" viewBox="0 0 192 3" fill="none" xmlns="http://www.w3.org/2000/svg">
<path opacity="0.2" fill-rule="evenodd" clip-rule="evenodd" d="M2.45513 3H0V0H2.45513C3.28356 0 3.95513 0.671573 3.95513 1.5C3.95513 2.32843 3.28356 3 2.45513 3ZM10.7756 1.5C10.7756 0.671573 11.4472 0 12.2756 0H17.1859C18.0143 0 18.6859 0.671573 18.6859 1.5C18.6859 2.32843 18.0143 3 17.1859 3H12.2756C11.4472 3 10.7756 2.32843 10.7756 1.5ZM25.5064 1.5C25.5064 0.671573 26.178 0 27.0064 0H31.9167C32.7451 0 33.4167 0.671573 33.4167 1.5C33.4167 2.32843 32.7451 3 31.9167 3H27.0064C26.178 3 25.5064 2.32843 25.5064 1.5ZM40.2372 1.5C40.2372 0.671573 40.9088 0 41.7372 0H46.6474C47.4759 0 48.1474 0.671573 48.1474 1.5C48.1474 2.32843 47.4759 3 46.6474 3H41.7372C40.9088 3 40.2372 2.32843 40.2372 1.5ZM54.968 1.5C54.968 0.671573 55.6395 0 56.468 0H61.3782C62.2066 0 62.8782 0.671573 62.8782 1.5C62.8782 2.32843 62.2066 3 61.3782 3H56.468C55.6395 3 54.968 2.32843 54.968 1.5ZM69.6987 1.5C69.6987 0.671573 70.3703 0 71.1987 0H76.109C76.9374 0 77.609 0.671573 77.609 1.5C77.609 2.32843 76.9374 3 76.109 3H71.1987C70.3703 3 69.6987 2.32843 69.6987 1.5ZM84.4295 1.5C84.4295 0.671573 85.1011 0 85.9295 0H90.8397C91.6682 0 92.3397 0.671573 92.3397 1.5C92.3397 2.32843 91.6682 3 90.8397 3H85.9295C85.1011 3 84.4295 2.32843 84.4295 1.5ZM99.1602 1.5C99.1602 0.671573 99.8318 0 100.66 0H105.571C106.399 0 107.071 0.671573 107.071 1.5C107.071 2.32843 106.399 3 105.571 3H100.66C99.8318 3 99.1602 2.32843 99.1602 1.5ZM113.891 1.5C113.891 0.671573 114.563 0 115.391 0H120.301C121.13 0 121.801 0.671573 121.801 1.5C121.801 2.32843 121.13 3 120.301 3H115.391C114.563 3 113.891 2.32843 113.891 1.5ZM128.622 1.5C128.622 0.671573 129.293 0 130.122 0H135.032C135.86 0 136.532 0.671573 136.532 1.5C136.532 2.32843 135.86 3 135.032 3H130.122C129.293 3 128.622 2.32843 128.622 1.5ZM143.353 1.5C143.353 0.671573 144.024 0 144.853 0H149.763C150.591 0 151.263 0.671573 151.263 1.5C151.263 2.32843 150.591 3 149.763 3H144.853C144.024 3 143.353 2.32843 143.353 1.5ZM158.083 1.5C158.083 0.671573 158.755 0 159.583 0H164.494C165.322 0 165.994 0.671573 165.994 1.5C165.994 2.32843 165.322 3 164.494 3H159.583C158.755 3 158.083 2.32843 158.083 1.5ZM172.814 1.5C172.814 0.671573 173.486 0 174.314 0H179.224C180.053 0 180.724 0.671573 180.724 1.5C180.724 2.32843 180.053 3 179.224 3H174.314C173.486 3 172.814 2.32843 172.814 1.5ZM187.545 1.5C187.545 0.671573 188.216 0 189.045 0H191.5V3H189.045C188.216 3 187.545 2.32843 187.545 1.5Z" fill="url(#paint0_linear_100_4)"/>
<defs>
<linearGradient id="paint0_linear_100_4" x1="5" y1="2.99893" x2="196.5" y2="3.49908" gradientUnits="userSpaceOnUse">
<stop stop-color="#9672FF"/>
<stop offset="1" stop-color="#4DDFFD"/>
</linearGradient>
</defs>
</svg>
