<svg width="95" height="15" viewBox="0 0 95 15" fill="none" xmlns="http://www.w3.org/2000/svg">
<path d="M8.2463 0.68156C8.32359 0.457384 8.63896 0.457383 8.71624 0.68156L10.3724 5.48537C10.4071 5.58601 10.5014 5.6535 10.6074 5.6535H15.9309C16.1756 5.6535 16.2732 5.9716 16.0709 6.11012L11.7923 9.03984C11.6994 9.10341 11.6605 9.22164 11.6973 9.32833L13.338 14.0873C13.4164 14.3148 13.161 14.5114 12.963 14.3758L8.62127 11.4029C8.5368 11.345 8.42574 11.345 8.34127 11.4029L3.99954 14.3758C3.80157 14.5114 3.54613 14.3148 3.62457 14.0873L5.26526 9.32833C5.30205 9.22164 5.26312 9.10341 5.17029 9.03984L0.891682 6.11012C0.689379 5.9716 0.786906 5.6535 1.03168 5.6535H6.35518C6.46114 5.6535 6.55546 5.58601 6.59015 5.48537L8.2463 0.68156Z" fill="#FBB040"/>
<path d="M27.7794 0.68156C27.8567 0.457384 28.172 0.457383 28.2493 0.68156L29.9055 5.48537C29.9402 5.58601 30.0345 5.6535 30.1404 5.6535H35.4639C35.7087 5.6535 35.8062 5.9716 35.6039 6.11012L31.3253 9.03984C31.2325 9.10341 31.1936 9.22164 31.2304 9.32833L32.871 14.0873C32.9495 14.3148 32.694 14.5114 32.4961 14.3758L28.1543 11.4029C28.0699 11.345 27.9588 11.345 27.8744 11.4029L23.5326 14.3758C23.3347 14.5114 23.0792 14.3148 23.1577 14.0873L24.7983 9.32833C24.8351 9.22164 24.7962 9.10341 24.7034 9.03984L20.4248 6.11012C20.2225 5.9716 20.32 5.6535 20.5648 5.6535H25.8883C25.9942 5.6535 26.0885 5.58601 26.1232 5.48537L27.7794 0.68156Z" fill="#FBB040"/>
<path d="M47.3125 0.68156C47.3897 0.457384 47.7051 0.457383 47.7824 0.68156L49.4385 5.48537C49.4732 5.58601 49.5676 5.6535 49.6735 5.6535H54.997C55.2418 5.6535 55.3393 5.9716 55.137 6.11012L50.8584 9.03984C50.7656 9.10341 50.7267 9.22164 50.7634 9.32833L52.4041 14.0873C52.4826 14.3148 52.2271 14.5114 52.0292 14.3758L47.6874 11.4029C47.603 11.345 47.4919 11.345 47.4074 11.4029L43.0657 14.3758C42.8677 14.5114 42.6123 14.3148 42.6907 14.0873L44.3314 9.32833C44.3682 9.22164 44.3293 9.10341 44.2364 9.03984L39.9578 6.11012C39.7555 5.9716 39.8531 5.6535 40.0978 5.6535H45.4213C45.5273 5.6535 45.6216 5.58601 45.6563 5.48537L47.3125 0.68156Z" fill="#FBB040"/>
<path d="M66.8454 0.68156C66.9226 0.457384 67.238 0.457383 67.3153 0.68156L68.9714 5.48537C69.0061 5.58601 69.1005 5.6535 69.2064 5.6535H74.5299C74.7747 5.6535 74.8722 5.9716 74.6699 6.11012L70.3913 9.03984C70.2985 9.10341 70.2596 9.22164 70.2963 9.32833L71.937 14.0873C72.0155 14.3148 71.76 14.5114 71.5621 14.3758L67.2203 11.4029C67.1359 11.345 67.0248 11.345 66.9403 11.4029L62.5986 14.3758C62.4006 14.5114 62.1452 14.3148 62.2236 14.0873L63.8643 9.32833C63.9011 9.22164 63.8622 9.10341 63.7693 9.03984L59.4907 6.11012C59.2884 5.9716 59.386 5.6535 59.6307 5.6535H64.9542C65.0602 5.6535 65.1545 5.58601 65.1892 5.48537L66.8454 0.68156Z" fill="#FBB040"/>
<path d="M86.3784 0.68156C86.4557 0.457384 86.7711 0.457383 86.8484 0.68156L88.5045 5.48537C88.5392 5.58601 88.6335 5.6535 88.7395 5.6535H94.063C94.3078 5.6535 94.4053 5.9716 94.203 6.11012L89.9244 9.03984C89.8316 9.10341 89.7926 9.22164 89.8294 9.32833L91.4701 14.0873C91.5485 14.3148 91.2931 14.5114 91.0951 14.3758L86.7534 11.4029C86.6689 11.345 86.5579 11.345 86.4734 11.4029L82.1317 14.3758C81.9337 14.5114 81.6783 14.3148 81.7567 14.0873L83.3974 9.32833C83.4342 9.22164 83.3953 9.10341 83.3024 9.03984L79.0238 6.11012C78.8215 5.9716 78.919 5.6535 79.1638 5.6535H84.4873C84.5933 5.6535 84.6876 5.58601 84.7223 5.48537L86.3784 0.68156Z" fill="#FBB040"/>
</svg>
