<svg width="210" height="11" viewBox="0 0 210 11" fill="none" xmlns="http://www.w3.org/2000/svg">
<path opacity="0.2" fill-rule="evenodd" clip-rule="evenodd" d="M198.545 7H201V4H198.545C197.716 4 197.045 4.67157 197.045 5.5C197.045 6.32843 197.716 7 198.545 7ZM190.224 5.5C190.224 4.67157 189.553 4 188.724 4H183.814C182.986 4 182.314 4.67157 182.314 5.5C182.314 6.32843 182.986 7 183.814 7H188.724C189.553 7 190.224 6.32843 190.224 5.5ZM175.494 5.5C175.494 4.67157 174.822 4 173.994 4H169.083C168.255 4 167.583 4.67157 167.583 5.5C167.583 6.32843 168.255 7 169.083 7H173.994C174.822 7 175.494 6.32843 175.494 5.5ZM160.763 5.5C160.763 4.67157 160.091 4 159.263 4H154.353C153.524 4 152.853 4.67157 152.853 5.5C152.853 6.32843 153.524 7 154.353 7H159.263C160.091 7 160.763 6.32843 160.763 5.5ZM146.032 5.5C146.032 4.67157 145.36 4 144.532 4H139.622C138.793 4 138.122 4.67157 138.122 5.5C138.122 6.32843 138.793 7 139.622 7H144.532C145.36 7 146.032 6.32843 146.032 5.5ZM131.301 5.5C131.301 4.67157 130.63 4 129.801 4H124.891C124.063 4 123.391 4.67157 123.391 5.5C123.391 6.32843 124.063 7 124.891 7H129.801C130.63 7 131.301 6.32843 131.301 5.5ZM116.571 5.5C116.571 4.67157 115.899 4 115.071 4H110.16C109.332 4 108.66 4.67157 108.66 5.5C108.66 6.32843 109.332 7 110.16 7H115.071C115.899 7 116.571 6.32843 116.571 5.5ZM101.84 5.5C101.84 4.67157 101.168 4 100.34 4H95.4295C94.6011 4 93.9295 4.67157 93.9295 5.5C93.9295 6.32843 94.6011 7 95.4295 7H100.34C101.168 7 101.84 6.32843 101.84 5.5ZM87.109 5.5C87.109 4.67157 86.4374 4 85.609 4H80.6987C79.8703 4 79.1987 4.67157 79.1987 5.5C79.1987 6.32843 79.8703 7 80.6987 7H85.609C86.4374 7 87.109 6.32843 87.109 5.5ZM72.3782 5.5C72.3782 4.67157 71.7066 4 70.8782 4H65.968C65.1395 4 64.468 4.67157 64.468 5.5C64.468 6.32843 65.1395 7 65.968 7H70.8782C71.7066 7 72.3782 6.32843 72.3782 5.5ZM57.6474 5.5C57.6474 4.67157 56.9759 4 56.1474 4H51.2372C50.4088 4 49.7372 4.67157 49.7372 5.5C49.7372 6.32843 50.4088 7 51.2372 7H56.1474C56.9759 7 57.6474 6.32843 57.6474 5.5ZM42.9167 5.5C42.9167 4.67157 42.2451 4 41.4167 4H36.5064C35.678 4 35.0064 4.67157 35.0064 5.5C35.0064 6.32843 35.678 7 36.5064 7H41.4167C42.2451 7 42.9167 6.32843 42.9167 5.5ZM28.1859 5.5C28.1859 4.67157 27.5143 4 26.6859 4H21.7756C20.9472 4 20.2756 4.67157 20.2756 5.5C20.2756 6.32843 20.9472 7 21.7756 7H26.6859C27.5143 7 28.1859 6.32843 28.1859 5.5ZM13.4551 5.5C13.4551 4.67157 12.7836 4 11.9551 4H9.5V7H11.9551C12.7836 7 13.4551 6.32843 13.4551 5.5Z" fill="url(#paint0_linear_2_122)"/>
<path d="M0 5.5C0 8.53757 2.46243 11 5.5 11C8.53757 11 11 8.53757 11 5.5C11 2.46243 8.53757 0 5.5 0C2.46243 0 0 2.46243 0 5.5Z" fill="#4DDFFD"/>
<path d="M199 5.5C199 8.53757 201.462 11 204.5 11C207.538 11 210 8.53757 210 5.5C210 2.46243 207.538 0 204.5 0C201.462 0 199 2.46243 199 5.5Z" fill="#9672FF"/>
<defs>
<linearGradient id="paint0_linear_2_122" x1="196" y1="6.99893" x2="4.49999" y2="7.49908" gradientUnits="userSpaceOnUse">
<stop stop-color="#9672FF"/>
<stop offset="1" stop-color="#4DDFFD"/>
</linearGradient>
</defs>
</svg>
