<svg width="17" height="15" viewBox="0 0 17 15" fill="none" xmlns="http://www.w3.org/2000/svg">
<path d="M8.2463 0.68156C8.32359 0.457384 8.63896 0.457383 8.71624 0.68156L10.3724 5.48537C10.4071 5.58601 10.5014 5.6535 10.6074 5.6535H15.9309C16.1756 5.6535 16.2732 5.9716 16.0709 6.11012L11.7923 9.03984C11.6994 9.10341 11.6605 9.22164 11.6973 9.32833L13.338 14.0873C13.4164 14.3148 13.161 14.5114 12.963 14.3758L8.62127 11.4029C8.5368 11.345 8.42574 11.345 8.34127 11.4029L3.99954 14.3758C3.80157 14.5114 3.54613 14.3148 3.62457 14.0873L5.26526 9.32833C5.30205 9.22164 5.26312 9.10341 5.17029 9.03984L0.891682 6.11012C0.689379 5.9716 0.786906 5.6535 1.03168 5.6535H6.35518C6.46114 5.6535 6.55546 5.58601 6.59015 5.48537L8.2463 0.68156Z" fill="#FBB040"/>
</svg>
