<svg width="192" height="3" viewBox="0 0 192 3" fill="none" xmlns="http://www.w3.org/2000/svg">
<path opacity="0.2" fill-rule="evenodd" clip-rule="evenodd" d="M189.545 3H192V0H189.545C188.716 0 188.045 0.671573 188.045 1.5C188.045 2.32843 188.716 3 189.545 3ZM181.224 1.5C181.224 0.671573 180.553 0 179.724 0H174.814C173.986 0 173.314 0.671573 173.314 1.5C173.314 2.32843 173.986 3 174.814 3H179.724C180.553 3 181.224 2.32843 181.224 1.5ZM166.494 1.5C166.494 0.671573 165.822 0 164.994 0H160.083C159.255 0 158.583 0.671573 158.583 1.5C158.583 2.32843 159.255 3 160.083 3H164.994C165.822 3 166.494 2.32843 166.494 1.5ZM151.763 1.5C151.763 0.671573 151.091 0 150.263 0H145.353C144.524 0 143.853 0.671573 143.853 1.5C143.853 2.32843 144.524 3 145.353 3H150.263C151.091 3 151.763 2.32843 151.763 1.5ZM137.032 1.5C137.032 0.671573 136.36 0 135.532 0H130.622C129.793 0 129.122 0.671573 129.122 1.5C129.122 2.32843 129.793 3 130.622 3H135.532C136.36 3 137.032 2.32843 137.032 1.5ZM122.301 1.5C122.301 0.671573 121.63 0 120.801 0H115.891C115.063 0 114.391 0.671573 114.391 1.5C114.391 2.32843 115.063 3 115.891 3H120.801C121.63 3 122.301 2.32843 122.301 1.5ZM107.571 1.5C107.571 0.671573 106.899 0 106.071 0H101.16C100.332 0 99.6603 0.671573 99.6603 1.5C99.6603 2.32843 100.332 3 101.16 3H106.071C106.899 3 107.571 2.32843 107.571 1.5ZM92.8398 1.5C92.8398 0.671573 92.1682 0 91.3398 0H86.4295C85.6011 0 84.9295 0.671573 84.9295 1.5C84.9295 2.32843 85.6011 3 86.4295 3H91.3398C92.1682 3 92.8398 2.32843 92.8398 1.5ZM78.109 1.5C78.109 0.671573 77.4374 0 76.609 0H71.6987C70.8703 0 70.1987 0.671573 70.1987 1.5C70.1987 2.32843 70.8703 3 71.6987 3H76.609C77.4374 3 78.109 2.32843 78.109 1.5ZM63.3782 1.5C63.3782 0.671573 62.7066 0 61.8782 0H56.968C56.1395 0 55.468 0.671573 55.468 1.5C55.468 2.32843 56.1395 3 56.968 3H61.8782C62.7066 3 63.3782 2.32843 63.3782 1.5ZM48.6474 1.5C48.6474 0.671573 47.9759 0 47.1474 0H42.2372C41.4088 0 40.7372 0.671573 40.7372 1.5C40.7372 2.32843 41.4088 3 42.2372 3H47.1474C47.9759 3 48.6474 2.32843 48.6474 1.5ZM33.9167 1.5C33.9167 0.671573 33.2451 0 32.4167 0H27.5064C26.678 0 26.0064 0.671573 26.0064 1.5C26.0064 2.32843 26.678 3 27.5064 3H32.4167C33.2451 3 33.9167 2.32843 33.9167 1.5ZM19.1859 1.5C19.1859 0.671573 18.5143 0 17.6859 0H12.7756C11.9472 0 11.2756 0.671573 11.2756 1.5C11.2756 2.32843 11.9472 3 12.7756 3H17.6859C18.5143 3 19.1859 2.32843 19.1859 1.5ZM4.45512 1.5C4.45512 0.671573 3.78355 0 2.95512 0H0.5V3H2.95512C3.78355 3 4.45512 2.32843 4.45512 1.5Z" fill="url(#paint0_linear_100_5)"/>
<defs>
<linearGradient id="paint0_linear_100_5" x1="187" y1="2.99893" x2="-4.50001" y2="3.49908" gradientUnits="userSpaceOnUse">
<stop stop-color="#9672FF"/>
<stop offset="1" stop-color="#4DDFFD"/>
</linearGradient>
</defs>
</svg>
